<svg width="274" height="67" viewBox="0 0 274 67" fill="none" xmlns="http://www.w3.org/2000/svg">
<path d="M101.709 54.0523C98.7558 54.0523 96.2951 53.2827 94.3266 51.7437C92.376 50.2047 91.0069 48.1287 90.2195 45.516L96.6083 43.9859C96.8052 45.0775 97.3778 46.017 98.3263 46.8045C99.2748 47.5919 100.322 47.9856 101.467 47.9856C102.219 47.9856 103.015 47.7887 103.856 47.395C104.697 46.9834 105.324 46.3302 105.735 45.4354C105.986 44.8628 106.129 44.1827 106.165 43.3953C106.218 42.59 106.245 41.6594 106.245 40.6036V14.592H112.795V40.6036C112.795 41.8026 112.786 42.8584 112.768 43.7711C112.768 44.6659 112.679 45.516 112.5 46.3213C112.339 47.1087 112.008 47.9229 111.507 48.764C110.451 50.5894 109.073 51.9316 107.373 52.7906C105.673 53.6317 103.785 54.0523 101.709 54.0523Z" fill="#111928"/>
<path d="M131.745 54.0791C129.598 54.0791 127.826 53.7212 126.43 53.0054C125.035 52.2895 123.925 51.3768 123.102 50.2673C122.279 49.1578 121.67 47.9766 121.276 46.7239C120.883 45.4712 120.623 44.2901 120.498 43.1806C120.391 42.0531 120.337 41.1404 120.337 40.4425V24.2557H126.887V38.2145C126.887 39.1093 126.949 40.1204 127.075 41.2478C127.2 42.3573 127.486 43.4311 127.934 44.4691C128.399 45.4891 129.079 46.3302 129.974 46.9924C130.886 47.6545 132.112 47.9856 133.651 47.9856C134.475 47.9856 135.289 47.8514 136.094 47.5829C136.899 47.3145 137.624 46.8581 138.269 46.2139C138.931 45.5518 139.459 44.648 139.852 43.5027C140.246 42.3573 140.443 40.9078 140.443 39.154L144.282 40.7915C144.282 43.2611 143.798 45.4981 142.832 47.5024C141.883 49.5067 140.479 51.1084 138.617 52.3074C136.756 53.4885 134.466 54.0791 131.745 54.0791ZM141.221 53.247V44.2543H140.443V24.2557H146.939V53.247H141.221Z" fill="#111928"/>
<path d="M168.413 54.0523C165.585 54.0523 163.214 53.3812 161.299 52.039C159.384 50.6968 157.944 48.8714 156.977 46.5629C156.011 44.2364 155.528 41.6326 155.528 38.7513C155.528 35.8343 156.011 33.2215 156.977 30.913C157.944 28.6044 159.357 26.788 161.219 25.4637C163.098 24.1215 165.415 23.4504 168.171 23.4504C170.909 23.4504 173.28 24.1215 175.285 25.4637C177.307 26.788 178.873 28.6044 179.982 30.913C181.092 33.2036 181.647 35.8164 181.647 38.7513C181.647 41.6505 181.101 44.2543 180.009 46.5629C178.918 48.8714 177.379 50.6968 175.392 52.039C173.406 53.3812 171.079 54.0523 168.413 54.0523ZM154.427 53.247V14.592H160.95V32.8994H160.145V53.247H154.427ZM167.42 48.254C169.102 48.254 170.489 47.8335 171.58 46.9924C172.672 46.1513 173.477 45.0149 173.996 43.5832C174.533 42.1337 174.802 40.523 174.802 38.7513C174.802 36.9976 174.533 35.4048 173.996 33.9732C173.459 32.5236 172.627 31.3783 171.5 30.5372C170.372 29.6782 168.941 29.2487 167.205 29.2487C165.558 29.2487 164.216 29.6513 163.178 30.4566C162.14 31.244 161.371 32.3536 160.87 33.7853C160.386 35.199 160.145 36.8544 160.145 38.7513C160.145 40.6304 160.386 42.2858 160.87 43.7174C161.371 45.1491 162.149 46.2676 163.205 47.0729C164.279 47.8603 165.684 48.254 167.42 48.254Z" fill="#111928"/>
<path d="M188.101 19.8534V13.9209H194.57V19.8534H188.101ZM188.101 53.247V24.2557H194.57V53.247H188.101Z" fill="#111928"/>
<path d="M202.611 53.247V24.2557H208.329V31.3156L207.631 30.4029C207.988 29.4366 208.463 28.5597 209.053 27.7723C209.662 26.9669 210.387 26.3048 211.228 25.7858C211.943 25.3026 212.731 24.9268 213.59 24.6584C214.467 24.3721 215.362 24.202 216.274 24.1484C217.187 24.0768 218.073 24.1126 218.932 24.2557V30.2956C218.073 30.045 217.08 29.9645 215.952 30.054C214.843 30.1435 213.84 30.4566 212.946 30.9935C212.051 31.4767 211.317 32.0941 210.744 32.8457C210.19 33.5973 209.778 34.4563 209.51 35.4227C209.241 36.3712 209.107 37.4002 209.107 38.5097V53.247H202.611Z" fill="#111928"/>
<path d="M220.829 53.247V46.6166H227.459V53.247H220.829Z" fill="#111928"/>
<path d="M244.167 54.0523C242.074 54.0523 240.302 53.6586 238.852 52.8711C237.403 52.0658 236.302 51.001 235.551 49.6767C234.817 48.3524 234.45 46.8939 234.45 45.3012C234.45 43.9053 234.683 42.6526 235.148 41.5431C235.613 40.4157 236.329 39.4493 237.295 38.644C238.262 37.8208 239.514 37.1497 241.054 36.6307C242.217 36.2549 243.577 35.9149 245.134 35.6106C246.709 35.3064 248.409 35.029 250.234 34.7785C252.077 34.51 254.001 34.2237 256.005 33.9195L253.697 35.2348C253.715 33.2305 253.267 31.7541 252.355 30.8056C251.442 29.8571 249.903 29.3829 247.738 29.3829C246.431 29.3829 245.17 29.6871 243.953 30.2956C242.736 30.904 241.886 31.9509 241.402 33.4363L235.497 31.5841C236.213 29.1323 237.573 27.1638 239.577 25.6784C241.599 24.1931 244.32 23.4504 247.738 23.4504C250.315 23.4504 252.578 23.871 254.529 24.7121C256.498 25.5532 257.956 26.9312 258.905 28.846C259.424 29.8661 259.737 30.913 259.844 31.9867C259.952 33.0426 260.005 34.1969 260.005 35.4496V53.247H254.341V46.9655L255.281 47.9856C253.974 50.0794 252.444 51.6184 250.69 52.6027C248.955 53.5691 246.78 54.0523 244.167 54.0523ZM245.456 48.8983C246.923 48.8983 248.176 48.6388 249.214 48.1198C250.252 47.6008 251.075 46.9655 251.684 46.2139C252.31 45.4623 252.731 44.7554 252.945 44.0932C253.285 43.27 253.473 42.3305 253.509 41.2747C253.563 40.2009 253.59 39.333 253.59 38.6708L255.576 39.2614C253.625 39.5656 251.952 39.834 250.556 40.0667C249.16 40.2993 247.961 40.523 246.959 40.7378C245.957 40.9346 245.071 41.1583 244.302 41.4089C243.55 41.6773 242.915 41.9905 242.396 42.3484C241.877 42.7063 241.474 43.1179 241.188 43.5832C240.919 44.0485 240.785 44.5943 240.785 45.2207C240.785 45.9365 240.964 46.5718 241.322 47.1266C241.68 47.6635 242.199 48.093 242.879 48.4151C243.577 48.7372 244.436 48.8983 245.456 48.8983Z" fill="#111928"/>
<path d="M267.531 19.8534V13.9209H274V19.8534H267.531ZM267.531 53.247V24.2557H274V53.247H267.531Z" fill="#111928"/>
<path fill-rule="evenodd" clip-rule="evenodd" d="M37.0608 59.6887C49.8991 57.9072 59.7877 46.8638 59.7877 33.4998V0H66.8291V33.4998C66.8291 52.003 51.8707 66.9997 33.4146 66.9997L37.0608 59.6887Z" fill="url(#paint0_linear_4778_15575)"/>
<path fill-rule="evenodd" clip-rule="evenodd" d="M33.4145 66.9998C14.9584 66.9998 0 52.0032 0 33.5H7.04136C7.04136 46.864 16.93 57.9074 29.7683 59.6889L33.4145 66.9998Z" fill="url(#paint1_linear_4778_15575)"/>
<path fill-rule="evenodd" clip-rule="evenodd" d="M51.0669 0V34.5934C51.0669 44.3225 43.1243 52.2905 33.4149 52.2905C23.7055 52.2905 15.7628 44.3276 15.7628 34.5934V33.505H22.8042V34.5934C22.8042 40.4308 27.5923 45.2312 33.4149 45.2312C39.2374 45.2312 44.0256 40.4308 44.0256 34.5934V0H51.0669Z" fill="url(#paint2_linear_4778_15575)"/>
<defs>
<linearGradient id="paint0_linear_4778_15575" x1="45.3004" y1="48.209" x2="66.1067" y2="31.8264" gradientUnits="userSpaceOnUse">
<stop stop-color="#3F83F8"/>
<stop offset="1" stop-color="#84E1BC"/>
</linearGradient>
<linearGradient id="paint1_linear_4778_15575" x1="16.7072" y1="33.5" x2="16.7072" y2="66.9998" gradientUnits="userSpaceOnUse">
<stop stop-color="#16BDCA"/>
<stop offset="1" stop-color="#6875F5"/>
</linearGradient>
<linearGradient id="paint2_linear_4778_15575" x1="51.0669" y1="9.87282" x2="19.2861" y2="9.87282" gradientUnits="userSpaceOnUse">
<stop stop-color="#6875F5"/>
<stop offset="1" stop-color="#16BDCA"/>
</linearGradient>
</defs>
</svg>
